<?xml version="1.0" standalone="no"?>
<!DOCTYPE svg PUBLIC "-//W3C//DTD SVG 20010904//EN"
 "http://www.w3.org/TR/2001/REC-SVG-20010904/DTD/svg10.dtd">
<svg version="1.0" xmlns="http://www.w3.org/2000/svg"
 width="758.000000pt" height="795.000000pt" viewBox="0 0 758.000000 795.000000"
 preserveAspectRatio="xMidYMid meet">

<g transform="translate(0.000000,795.000000) scale(0.100000,-0.100000)"
fill="#000000" stroke="none">
<path d="M2453 7431 c-143 -18 -275 -90 -344 -188 -58 -83 -78 -164 -83 -333
-3 -80 -10 -194 -16 -254 -7 -71 -7 -113 -1 -119 12 -12 127 9 155 29 48 33
141 12 286 -66 40 -21 132 -48 205 -60 63 -11 197 -12 211 -2 5 4 18 25 28 47
9 22 22 50 29 63 15 30 99 114 132 132 25 13 28 13 42 -5 19 -26 10 -85 -14
-98 -30 -16 -123 -118 -143 -156 -10 -20 -23 -78 -29 -130 -12 -92 -10 -125 4
-79 4 13 19 43 33 67 l25 45 23 -27 c13 -15 33 -27 44 -27 49 0 123 83 148
165 7 22 16 81 19 131 5 86 4 92 -17 112 l-24 22 29 99 c23 80 27 112 23 167
-6 72 -41 173 -74 214 -86 104 -181 166 -341 221 -95 33 -231 45 -350 30z"/>
<path d="M4430 7375 c-273 -56 -544 -241 -647 -440 -81 -158 -113 -309 -113
-542 0 -222 30 -430 96 -673 56 -203 86 -278 123 -307 45 -36 100 -41 151 -14
52 27 58 26 100 -9 39 -34 86 -39 143 -15 20 8 58 15 84 15 26 0 54 4 60 8 8
5 15 44 19 100 l7 92 -39 16 c-114 47 -254 175 -326 298 -36 64 -47 75 -70 76
-41 0 -80 18 -117 53 -79 75 -170 246 -171 319 0 53 34 78 92 67 24 -4 46 -8
50 -9 3 0 10 -15 13 -32 4 -18 11 -38 16 -44 5 -6 18 -35 28 -65 11 -30 29
-73 40 -96 12 -23 21 -46 21 -51 0 -21 62 -92 85 -98 14 -3 25 -10 25 -15 0
-5 24 -9 54 -9 53 0 127 30 162 65 8 8 27 22 42 30 15 9 36 28 46 42 12 16 14
23 5 18 -26 -16 -74 -50 -79 -56 -9 -12 -82 -39 -104 -39 -12 0 -28 -6 -34
-12 -9 -9 -15 -10 -20 -2 -4 6 -24 14 -46 17 -21 3 -48 12 -60 20 -26 18 -156
273 -156 307 1 50 12 68 53 86 23 10 47 24 54 30 6 6 32 17 56 24 31 8 44 17
40 25 -4 11 -10 11 -31 2 -15 -6 -29 -14 -32 -17 -7 -8 -104 -49 -108 -46 -1
2 9 45 22 97 14 52 37 148 51 214 15 66 29 123 32 128 2 4 17 -2 33 -13 54
-38 199 -81 371 -108 93 -14 172 -23 175 -19 4 4 -20 46 -52 95 -82 118 -82
119 -45 91 114 -84 184 -132 299 -200 l113 -68 -98 2 c-130 3 -488 -42 -503
-63 -3 -3 -29 -13 -58 -21 -29 -8 -52 -19 -50 -24 3 -12 48 -8 63 5 6 5 30 12
54 16 23 4 49 13 57 21 10 10 38 15 92 15 42 0 83 5 90 11 17 13 421 14 430 1
4 -5 26 -18 50 -29 l43 -20 -3 -165 c-2 -99 -8 -173 -15 -185 -7 -13 -8 -26
-2 -37 8 -14 -2 -22 -57 -48 -58 -28 -67 -30 -82 -17 -9 8 -48 17 -86 20 -38
4 -72 10 -75 14 -19 26 -231 57 -231 34 0 -5 17 -7 39 -4 23 3 41 1 45 -6 4
-6 16 -11 28 -11 27 0 160 -40 177 -54 8 -6 50 -11 95 -11 76 0 84 2 127 33
26 19 52 45 58 59 6 14 14 107 18 209 4 114 10 187 17 193 6 4 30 15 54 24 38
15 46 16 71 3 21 -11 30 -25 34 -52 13 -81 -31 -261 -88 -358 -29 -49 -78 -96
-100 -96 -15 0 -21 -14 -30 -81 -7 -56 -64 -216 -100 -284 -15 -27 -44 -70
-66 -96 -35 -42 -39 -53 -39 -100 0 -86 2 -86 126 -46 60 19 127 39 149 44 33
7 45 16 70 56 l30 47 48 -5 c69 -8 108 7 140 57 15 23 27 48 27 54 0 10 7 9
28 -2 30 -15 80 -18 100 -5 10 6 13 25 9 67 -6 79 -28 188 -39 195 -5 3 70 9
166 12 188 6 212 13 234 63 17 36 15 110 -4 145 -22 43 -68 59 -168 59 l-84 0
-4 106 c-3 100 -4 107 -30 129 -56 48 -160 38 -202 -18 -17 -24 -22 -46 -24
-133 -5 -131 -21 -137 -44 -16 -66 331 -198 614 -364 779 -40 39 -84 77 -97
85 -98 54 -161 81 -217 94 -80 17 -233 17 -320 -1z"/>
<path d="M4783 6641 c-64 -22 -123 -66 -123 -92 0 -28 37 -24 101 11 30 16 83
39 119 51 81 27 85 29 69 40 -23 14 -111 9 -166 -10z"/>
<path d="M4865 6537 c-52 -21 -84 -48 -110 -94 -30 -55 -31 -59 -5 -33 19 19
20 19 44 -5 30 -30 59 -32 86 -5 22 22 26 51 10 80 -12 22 3 33 74 55 l41 13
-55 0 c-30 0 -68 -5 -85 -11z"/>
<path d="M4205 6521 c-86 -19 -122 -35 -170 -77 l-30 -26 35 6 c19 3 64 13
100 22 36 10 96 18 134 20 37 1 73 7 78 12 15 15 -1 52 -22 52 -10 0 -24 2
-32 4 -7 3 -49 -3 -93 -13z"/>
<path d="M4144 6335 c-28 -14 -60 -35 -70 -46 l-19 -21 40 17 c22 10 52 20 68
23 24 4 27 1 27 -21 0 -26 40 -67 67 -67 23 0 63 47 63 75 0 22 3 25 20 20 38
-12 20 6 -26 25 -60 26 -108 25 -170 -5z"/>
<path d="M2980 6183 c-68 -129 -147 -238 -238 -331 -86 -87 -204 -132 -348
-132 l-64 0 1 -67 c0 -38 4 -90 7 -117 l7 -49 65 -24 c51 -18 86 -23 161 -23
53 0 109 4 125 9 16 5 71 19 123 31 111 26 131 36 132 70 1 17 4 13 10 -15 12
-56 0 -144 -21 -165 -10 -10 -44 -23 -77 -30 -32 -6 -65 -16 -73 -20 -8 -5
-35 -21 -60 -36 -25 -14 -65 -37 -88 -51 -24 -14 -65 -38 -90 -54 -26 -15 -67
-40 -92 -54 -25 -14 -67 -39 -95 -55 -27 -16 -70 -41 -95 -55 -25 -14 -60 -35
-78 -47 -18 -11 -36 -18 -39 -14 -4 3 16 77 44 164 58 178 73 236 73 285 0 24
8 41 30 62 28 27 41 75 20 75 -23 0 -292 -263 -361 -355 -50 -65 -156 -237
-185 -299 -19 -39 -19 -39 4 -54 34 -23 30 -75 -10 -122 -18 -21 -49 -57 -68
-80 -19 -23 -42 -49 -51 -58 -8 -10 -26 -32 -38 -49 -21 -32 -25 -33 -90 -33
-94 0 -109 -17 -121 -136 -9 -92 -16 -124 -30 -124 -15 0 -40 -81 -40 -131 0
-43 5 -55 29 -80 28 -27 34 -29 113 -29 46 0 88 -4 94 -8 7 -4 37 -45 68 -92
61 -93 64 -97 137 -188 31 -39 48 -69 45 -80 -16 -53 -63 -1155 -50 -1159 43
-15 44 -6 -24 -238 -16 -55 -44 -149 -61 -210 -17 -60 -43 -148 -57 -195 -14
-47 -36 -128 -50 -180 -13 -52 -29 -104 -34 -115 -5 -11 -18 -54 -29 -95 -19
-72 -56 -200 -99 -342 l-21 -68 848 0 848 0 11 138 c7 75 19 268 27 429 10
188 20 306 29 331 15 42 54 326 59 422 l2 55 47 8 47 9 6 1096 c3 604 7 1171
8 1262 2 242 -35 418 -122 572 -40 71 -136 176 -164 180 -17 2 -23 11 -27 43
-4 33 -9 41 -28 43 l-24 4 7 116 c4 64 11 140 16 167 8 43 38 347 35 352 -1 1
-17 -28 -36 -64z m-1058 -1370 c22 -20 23 -41 1 -65 -22 -24 -49 -23 -67 4
-20 29 -20 34 4 58 24 24 38 25 62 3z m408 -295 c0 -4 -16 -24 -36 -43 -20
-20 -34 -38 -32 -40 2 -2 44 3 93 12 93 16 118 20 221 29 52 5 62 4 68 -11 9
-25 -8 -48 -46 -61 -32 -12 -30 -13 35 -13 65 -1 68 -2 65 -23 -3 -24 -51 -57
-101 -68 -28 -7 -25 -8 21 -9 48 -1 52 -3 52 -25 0 -18 -10 -29 -42 -45 -30
-15 -37 -21 -22 -21 35 0 48 -24 27 -48 -44 -49 -211 -76 -477 -76 l-178 -1
-19 60 c-11 37 -19 90 -19 138 0 71 2 77 21 77 29 0 59 18 59 35 0 26 84 96
175 145 l90 49 22 -27 c12 -15 22 -30 23 -34z"/>
<path d="M2508 4283 c7 -3 16 -2 19 1 4 3 -2 6 -13 5 -11 0 -14 -3 -6 -6z"/>
<path d="M2468 4183 c6 -2 18 -2 25 0 6 3 1 5 -13 5 -14 0 -19 -2 -12 -5z"/>
<path d="M2398 4173 c7 -3 16 -2 19 1 4 3 -2 6 -13 5 -11 0 -14 -3 -6 -6z"/>
<path d="M4930 5284 c-75 -51 -173 -84 -250 -84 -64 0 -207 37 -229 59 -14 14
-71 45 -71 38 0 -1 50 -104 110 -227 61 -124 134 -273 163 -332 28 -59 55
-108 58 -108 3 0 12 21 21 48 21 59 63 164 88 218 11 23 20 44 20 48 0 4 13
38 29 74 15 37 45 108 65 157 33 78 50 118 64 148 5 10 5 10 -68 -39z"/>
<path d="M4593 4543 c-82 -3 -103 -7 -103 -18 0 -13 -25 -15 -148 -15 l-149 0
-6 -562 c-3 -310 -3 -566 0 -570 7 -12 921 -10 928 2 3 5 2 95 -1 200 l-7 190
-59 0 c-32 0 -66 4 -76 9 -9 5 -77 17 -151 26 -74 8 -136 17 -138 19 -2 1 -6
73 -10 158 -5 134 -4 155 9 161 9 3 76 8 149 12 74 3 167 8 207 11 l72 6 0
169 0 169 -140 0 c-118 0 -140 2 -140 15 0 11 -12 15 -47 15 -27 0 -57 2 -68
3 -11 2 -66 2 -122 0z"/>
<path d="M3362 2218 c-7 -46 -12 -139 -11 -208 0 -124 12 -190 37 -198 9 -3
12 21 12 97 0 56 4 101 8 101 5 0 13 -47 19 -105 10 -105 20 -134 43 -120 8 5
11 41 9 114 -1 58 2 107 7 109 5 1 12 -48 15 -110 7 -124 13 -151 38 -146 14
3 16 22 16 136 0 72 3 132 8 132 4 0 7 -38 7 -85 0 -85 18 -155 39 -155 12 0
13 19 11 203 -1 113 0 118 18 108 11 -6 26 -20 35 -33 42 -64 86 -85 71 -35
-21 72 -90 207 -122 240 l-36 37 -107 0 -106 0 -11 -82z"/>
<path d="M4632 1443 c-6 -15 -15 -44 -20 -63 -33 -115 -77 -247 -86 -257 -30
-33 -630 -23 -824 13 -46 8 -85 14 -87 12 -1 -2 -5 -31 -9 -65 l-7 -63 484 0
484 0 7 99 c4 55 13 119 20 143 l12 43 7 -90 c4 -49 10 -114 14 -142 l6 -53
475 0 475 0 -6 71 c-3 39 -8 74 -11 76 -5 5 -301 -15 -552 -37 -60 -6 -153
-10 -206 -10 l-96 0 -11 48 c-6 26 -20 102 -30 170 -10 67 -20 125 -23 128 -3
2 -10 -8 -16 -23z"/>
</g>
</svg>
